<?xml version="1.0" encoding="utf-8"?>
<!-- Generator: Adobe Illustrator 16.0.0, SVG Export Plug-In . SVG Version: 6.00 Build 0)  -->
<!DOCTYPE svg PUBLIC "-//W3C//DTD SVG 1.1//EN" "http://www.w3.org/Graphics/SVG/1.1/DTD/svg11.dtd">
<svg version="1.1" id="Layer_1" xmlns="http://www.w3.org/2000/svg" xmlns:xlink="http://www.w3.org/1999/xlink" x="0px" y="0px"
	 width="890px" height="857.394px" viewBox="0 0 890 857.394" enable-background="new 0 0 890 857.394" xml:space="preserve">
<path fill="#2F2E41" d="M301.805,601.455l1.333,28.096v0.002c0.47,9.889-7.166,18.283-17.054,18.752l-0.582,0.027l-2.184-46
	L301.805,601.455z"/>
<circle fill="#FFFFFF" cx="203.546" cy="630.417" r="58.905"/>
<path fill="#3F3D56" d="M227.141,605.697h-47.189c-4.342,0.006-7.861,3.523-7.866,7.867v33.709c0.005,4.34,3.522,7.857,7.866,7.863
	h47.189c4.342-0.006,7.861-3.523,7.867-7.863v-33.709C235.002,609.222,231.484,605.703,227.141,605.697z M227.141,610.193
	c0.283,0.002,0.564,0.037,0.835,0.107l-24.425,19.482l-24.282-19.521c0.226-0.047,0.452-0.07,0.682-0.07L227.141,610.193
	L227.141,610.193z M227.141,650.642h-47.189c-1.86-0.004-3.369-1.512-3.371-3.369v-33.406l25.558,20.551
	c0.82,0.66,1.987,0.66,2.81,0.006l25.564-20.393v33.242C230.51,649.13,229.003,650.638,227.141,650.642z"/>
<path fill="#FFB8B8" d="M430.873,545.373l13.181,0.107c5.063,0.045,9.202-4.029,9.246-9.094c0.005-0.512-0.035-1.025-0.116-1.531
	l0,0c-0.804-5-5.508-8.4-10.508-7.598c-0.905,0.146-1.782,0.426-2.604,0.83l-12.429,6.135l-42.511,9.479l-18.213-18.619
	l-10.463,17.23l24.577,18.986L430.873,545.373z"/>
<path fill="#2F2E41" d="M428.404,681.546l-15.528,2.986c-10.606-33.436-22.099-65.1-22.098-89.588
	c-15.012,16.705-33.625,26.266-55.545,29.266l2.388-37.029l17.917-9.557l27.424-12.654c2.4-1.109,4.99-1.75,7.632-1.889l0,0
	c10.631-0.561,19.974,6.992,21.655,17.504L428.404,681.546z"/>
<path fill="#2F2E41" d="M354.046,619.73l-6.188,4.703c-5.415,4.117-12.605,5.055-18.896,2.465l0,0
	c-17.729-13.287-30.321-9.367-41.735,10.689c-13.691-15.451-17.07-37.77-4.85-60.857l67.786,1.492l13.737-4.182L354.046,619.73z"/>
<path fill="#2F2E41" d="M331.471,688.929L331.471,688.929c-8.019,2.469-16.649-1.172-20.484-8.631
	c-6.09-5.367-11.231-13.049-15.689-22.391c-3.199-6.854-5.945-13.908-8.223-21.119c-3.085-9.529,2.072-19.938,11.673-22.789
	c0.287-0.084,0.574-0.164,0.869-0.24c12.814-3.289,25.977,4.105,30.357,16.59l12.739,36.307c3.166,9.02-1.58,18.896-10.602,22.063
	l0,0C331.899,688.792,331.686,688.863,331.471,688.929z"/>
<path opacity="0.2" enable-background="new    " d="M293.127,611.662c0,0,14.931,16.725,17.917,26.279"/>
<path fill="#FFB8B8" d="M235.218,574.853l-4.997,12.193c-1.92,4.688,0.322,10.043,5.009,11.963c0.475,0.195,0.964,0.352,1.464,0.461
	l0,0c4.941,1.111,9.849-1.994,10.958-6.934c0.2-0.896,0.268-1.814,0.196-2.727l-1.077-13.818l6.992-42.99l24.054-9.992
	l-12.109-16.113l-26.759,15.764L235.218,574.853z"/>
<path fill="#E6E6E6" d="M354.644,576.728c-17.161,28.824-51.371,39.988-80.671,17.414c5.154-16.934,21.795-63.738,11.045-65.529
	c-22.826,9.57-22.858-12.902-27.129-24.15l51.959-19.113l28.071,7.766l5.753,2.041c7.669,2.723,12.835,9.93,12.945,18.066
	C344.828,530.257,336.101,548.429,354.644,576.728z"/>
<path fill="#E6E6E6" d="M361.213,553.435l-20.604-17.02l6.868-39.717l28.07,29.863L361.213,553.435z"/>
<path id="bc7f4772-a479-43ba-84b6-0038831d0625-190" fill="#3F3D56" d="M703.115,280.591h-2.944v-80.66
	c0-25.782-20.9-46.682-46.683-46.682l0,0H482.6c-25.783,0-46.684,20.9-46.684,46.682l0,0v442.506
	c0,25.779,20.899,46.682,46.684,46.682l0,0h170.888c25.781,0,46.681-20.902,46.681-46.682l0,0V338.005h2.945L703.115,280.591z"/>
<path id="e7549b14-e146-4c1f-8b4f-7638ef62aaf0-191" fill="#FFFFFF" d="M655.37,165.394h-22.307
	c3.456,8.469-0.608,18.137-9.077,21.594c-1.986,0.811-4.113,1.228-6.259,1.228h-97.899c-9.146-0.001-16.563-7.417-16.562-16.565
	c0-2.145,0.416-4.269,1.228-6.254h-20.839c-19.253,0-34.861,15.608-34.861,34.863l0,0v441.853c0,19.256,15.608,34.863,34.861,34.863
	l0,0h171.709c19.254,0,34.863-15.607,34.863-34.863l0,0l0,0l0,0V200.256c0-19.254-15.607-34.863-34.863-34.863l0,0L655.37,165.394
	L655.37,165.394z"/>
<circle id="f4a12a6a-3235-4aa9-87a4-fdfa38e5097e" fill="#E6E6E6" cx="569.808" cy="633.138" r="19.145"/>
<path fill="#E6E6E6" d="M492.146,456.093c-1.811,0-3.281,1.682-3.281,3.746c0,2.066,1.472,3.746,3.281,3.746h154.729
	c1.811,0,3.282-1.68,3.282-3.746c0-2.064-1.473-3.746-3.282-3.746H492.146z"/>
<path fill="#E6E6E6" d="M492.146,544.451c-1.811,0-3.281,1.682-3.281,3.746c0,2.066,1.472,3.748,3.281,3.748h154.729
	c1.811,0,3.282-1.682,3.282-3.748c0-2.064-1.473-3.746-3.282-3.746H492.146z"/>
<path fill="#E6E6E6" d="M492.146,478.572c-1.811,0-3.281,1.682-3.281,3.746c0,2.066,1.472,3.746,3.281,3.746h66.58
	c1.811,0,3.283-1.68,3.283-3.746c0-2.064-1.474-3.746-3.283-3.746H492.146z"/>
<path fill="#E6E6E6" d="M492.146,499.998c-1.811,0-3.281,1.68-3.281,3.746c0,2.064,1.472,3.746,3.281,3.746h154.729
	c1.811,0,3.282-1.682,3.282-3.746c0-2.066-1.473-3.746-3.282-3.746H492.146z"/>
<path fill="#E6E6E6" d="M492.146,522.474c-1.811,0-3.281,1.682-3.281,3.746c0,2.066,1.472,3.748,3.281,3.748h66.58
	c1.811,0,3.283-1.682,3.283-3.748c0-2.064-1.474-3.746-3.283-3.746H492.146z"/>
<path fill="#FFFF08" d="M521.356,285.511h96.319c2.215,0.003,4.01,1.798,4.013,4.014v100.313c-0.003,2.216-1.798,4.011-4.013,4.014
	h-96.319c-2.215-0.003-4.012-1.798-4.013-4.014V289.524C517.344,287.309,519.141,285.514,521.356,285.511z"/>
<path fill="#FFFFFF" d="M597.152,373.165c1.505,0,2.724-1.219,2.727-2.724c0-1.505-1.219-2.726-2.725-2.727l0,0H541.88
	c-1.507,0-2.727,1.219-2.728,2.724c0,1.505,1.22,2.726,2.725,2.727H597.152z"/>
<path fill="#FFFFFF" d="M597.152,357.112c1.505,0,2.724-1.222,2.724-2.727c-0.003-1.503-1.221-2.722-2.724-2.723H541.88
	c-1.507-0.001-2.727,1.218-2.728,2.723c0,1.505,1.22,2.726,2.725,2.727H597.152z"/>
<path fill="#FFFFFF" d="M569.515,306.198c9.471,0,17.149,7.678,17.149,17.15c0,9.472-7.68,17.15-17.148,17.15
	c-9.473,0-17.15-7.679-17.15-17.15l0,0l0,0C552.375,313.881,560.048,306.208,569.515,306.198z"/>
<path fill="#2F2E41" d="M350.686,480.15h-50.914c-2.182-0.002-3.947-1.77-3.951-3.949v-21.947c0-16.242,13.167-29.408,29.407-29.408
	c16.243,0,29.408,13.167,29.408,29.408v21.947C354.635,478.38,352.866,480.148,350.686,480.15z"/>
<circle fill="#FFB6B6" cx="330.851" cy="457.267" r="21.561"/>
<path fill="#2F2E41" d="M361.594,456.447h-31.133l-0.321-4.469l-1.595,4.469h-4.796l-0.631-8.855l-3.165,8.855h-9.276v-0.438
	c0.016-12.842,10.421-23.248,23.264-23.264h4.39c12.842,0.016,23.249,10.422,23.264,23.264V456.447L361.594,456.447z"/>
<path fill="#2F2E41" d="M330.205,484.248c-0.233,0-0.469-0.021-0.698-0.063l-22.798-4.021v-37.678h25.096l-0.622,0.723
	c-8.645,10.082-2.132,26.432,2.52,35.277c0.698,1.322,0.579,2.93-0.31,4.131C332.653,483.64,331.469,484.248,330.205,484.248z"/>
<path fill="#2F2E41" d="M406.107,628.158l28.127-0.002h0.001c9.9,0.002,17.926,8.025,17.926,17.926v0.582l-46.053,0.002
	L406.107,628.158z"/>
</svg>
