<?xml version="1.0" encoding="utf-8"?>
<!-- Generator: Adobe Illustrator 16.0.0, SVG Export Plug-In . SVG Version: 6.00 Build 0)  -->
<!DOCTYPE svg PUBLIC "-//W3C//DTD SVG 1.1//EN" "http://www.w3.org/Graphics/SVG/1.1/DTD/svg11.dtd">
<svg version="1.1" id="Layer_1" xmlns="http://www.w3.org/2000/svg" xmlns:xlink="http://www.w3.org/1999/xlink" x="0px" y="0px"
	 width="524.67px" height="531.396px" viewBox="0 0 524.67 531.396" enable-background="new 0 0 524.67 531.396"
	 xml:space="preserve">
<polygon fill="#A0616A" points="117.267,97.41 113.345,117.999 132.897,123.511 130.469,101.529 "/>
<g>
	<path fill="#FFFFFF" d="M350.962,244.047H149.321c-22.866,0-41.403,18.537-41.403,41.402v195.529
		c0,22.865,18.537,41.402,41.403,41.402h201.642c22.866,0,41.403-18.537,41.403-41.402V285.449
		C392.366,262.583,373.829,244.047,350.962,244.047L350.962,244.047z"/>
	<path fill="#3F3D56" d="M350.962,523.361H149.321c-23.372,0-42.383-19.014-42.383-42.383V285.45
		c0-23.371,19.014-42.384,42.383-42.384h201.642c23.37,0,42.384,19.014,42.384,42.384v195.528
		C393.347,504.349,374.332,523.361,350.962,523.361L350.962,523.361z M149.321,245.027c-22.29,0-40.422,18.134-40.422,40.423
		v195.528c0,22.289,18.133,40.422,40.422,40.422h201.642c22.289,0,40.423-18.133,40.423-40.422V285.45
		c0-22.289-18.134-40.423-40.423-40.423H149.321L149.321,245.027z"/>
	<path fill="#FFEC00" d="M365.57,328.815h-81.05c-3.438,0-6.233-2.798-6.233-6.233c0-3.437,2.797-6.235,6.233-6.235h81.05
		c3.438,0,6.234,2.799,6.234,6.235C371.804,326.018,369.007,328.815,365.57,328.815L365.57,328.815z"/>
	<path fill="#FFEC00" d="M289.534,377.843H210.75c-1.985,0-3.602-1.615-3.602-3.603c0-1.985,1.616-3.602,3.602-3.602h78.784
		c1.986,0,3.602,1.615,3.602,3.602C293.136,376.228,291.521,377.843,289.534,377.843L289.534,377.843z"/>
	<path fill="#FFEC00" d="M133.202,257.437h44.979c0.168,0,0.305,0.136,0.305,0.304v5.236c0,0.168-0.137,0.304-0.305,0.304h-44.979
		c-0.168,0-0.305-0.136-0.305-0.304v-5.236C132.897,257.572,133.033,257.437,133.202,257.437z"/>
	<circle fill="#3F3D56" cx="329.687" cy="258.606" r="4.676"/>
	<circle fill="#3F3D56" cx="342.543" cy="258.606" r="4.676"/>
	<circle fill="#3F3D56" cx="355.403" cy="258.606" r="4.676"/>
	<path fill="#3F3D56" d="M148.83,397.125c0,0.647,0.519,1.167,1.165,1.167h200.291c0.647,0,1.166-0.52,1.166-1.167
		c0-0.646-0.519-1.166-1.166-1.166H149.995C149.35,395.959,148.83,396.479,148.83,397.125z"/>
</g>
<g>
	<path id="uuid-d0b76542-8f08-4363-846d-0cc3b89caf22-128" fill="#A0616A" d="M209.915,109.344c4.263-3.523,9.538-4.18,11.78-1.465
		c2.241,2.714,0.601,7.769-3.663,11.293c-1.686,1.432-3.689,2.438-5.841,2.937l-18.256,14.701l-6.716-8.714l18.709-13.567
		C206.824,112.507,208.191,110.729,209.915,109.344L209.915,109.344z"/>
	<path fill="#E6E6E6" d="M104.402,142.512c-0.009-0.65-0.003-6.321,4.195-9.905c4.823-4.117,11.627-2.451,14.014-1.866
		c5.514,1.35,5.966,3.716,11.144,6.145c9.688,4.547-2.45,2.22,3.314,0.762c1.994-0.505,30.699-2.495,37.844-6.894
		c13.896-8.553,23.365-13.738,23.365-13.738l6.19,12.379c0,0-8.951,12.444-21.548,21.664c-12.921,9.457-19.382,14.186-29.2,16.012
		c-0.845,0.158-21.639,3.708-38.388-8.804C111.51,155.414,104.511,150.184,104.402,142.512L104.402,142.512z"/>
	<circle fill="#A0616A" cx="123.602" cy="89.467" r="21.563"/>
	<g>
		<polygon fill="#A0616A" points="292.468,234.33 270.262,211.599 258.8,223.556 275.344,245.351 291.754,247.227 		"/>
		<path fill="#2F2E41" d="M165.672,191.705c1.298,0.108,5.426,0.936,9.371-1.235c2.692-1.482,4.074-3.684,4.54-4.385
			c5.786-8.689,27.994-22.24,47.925-23.074c4.514-0.189,7.484,0.334,10.185,1.741c3.829,1.996,5.358,4.855,10.216,11.552
			c2.658,3.664,5.599,7.115,8.289,10.755c15.749,21.311,21.717,22.984,21.107,29.815c-0.676,7.58-8.852,14.772-14.285,13.942
			c-2.226-0.34-3.087-1.887-6.062-5.02c-8.717-9.185-12.322-7.487-18.528-14.523c-7.247-8.213-6.297-15.023-10.078-15.286
			c-3.505-0.244-4.995,5.565-12.479,13.283c-3.425,3.531-5.863,5.151-13.294,10.306c-28.933,20.072-29.394,21.482-35.234,23.083
			c-2.555,0.701-20.688,5.672-27.146-2.239C130.089,228.042,153.968,190.732,165.672,191.705L165.672,191.705z"/>
		<path fill="#2F2E41" d="M285.68,239.466c1.633-0.733,3.541-1.591,4.156-3.563c0.415-1.334,0.177-2.979-0.683-4.116
			c-0.992-1.312-2.46-1.484-2.399-1.717c0.091-0.353,3.561-0.215,7.37,1.132c0.719,0.254,3.977,1.444,8.118,4.679
			c3.318,2.591,2.871,3.109,4.953,4.604c6.389,4.587,12.382,0.972,15.838,5.273c1.334,1.66,1.902,4.016,1.343,5.922
			c-1.128,3.827-6.611,5.145-9.609,5.824c-7.216,1.637-12.681,0.301-18.384-0.66c-19.398-3.269-30.299-0.292-31.759-4.786
			c-0.275-0.851,0.173-0.777,1.669-7.02c1.476-6.161,1.428-7.853,2.685-8.346c1.894-0.742,3.164,2.636,7.932,3.791
			C281.135,241.506,284.621,239.941,285.68,239.466L285.68,239.466z"/>
	</g>
	<g>
		<polygon fill="#A0616A" points="252.99,308.69 247.379,277.412 231.18,280.868 232.632,308.192 245.156,318.962 		"/>
		<path fill="#2F2E41" d="M172.007,202.219c1.014,0.819,3.965,3.82,8.447,4.239c3.06,0.287,5.439-0.761,6.219-1.078
			c9.667-3.941,35.651-2.684,52.612,7.817c3.84,2.379,6.005,4.48,7.449,7.16c2.048,3.801,1.707,7.026,1.967,15.297
			c0.144,4.523,0.638,9.03,0.819,13.554c1.063,26.476,5.064,31.214,0.722,36.523c-4.817,5.893-15.62,7.251-19.65,3.514
			c-1.649-1.531-1.495-3.295-2.195-7.556c-2.056-12.495-5.992-13.115-7.177-22.422c-1.383-10.865,3.226-15.967,0.245-18.307
			c-2.764-2.17-7.258,1.8-17.786,3.983c-4.817,0.999-7.743,0.969-16.786,1.063c-35.212,0.361-36.386,1.27-42.117-0.685
			c-2.506-0.855-20.301-6.924-21.203-17.097C122.159,212.306,162.869,194.842,172.007,202.219L172.007,202.219z"/>
		<path fill="#2F2E41" d="M244.488,309.127c1.764,0.31,3.825,0.674,5.441-0.613c1.092-0.871,1.818-2.366,1.746-3.789
			c-0.084-1.644-1.202-2.609-1.021-2.769c0.273-0.241,3.066,1.822,5.462,5.076c0.453,0.612,2.479,3.426,4.091,8.429
			c1.291,4.008,0.63,4.187,1.513,6.592c2.711,7.383,9.699,7.758,10.144,13.256c0.174,2.124-0.68,4.394-2.216,5.655
			c-3.08,2.533-8.357,0.545-11.219-0.576c-6.891-2.698-10.66-6.873-14.841-10.871c-14.217-13.597-24.908-17.255-23.592-21.794
			c0.25-0.858,0.581-0.546,5.324-4.871c4.681-4.269,5.59-5.697,6.908-5.398c1.983,0.448,1.138,3.956,4.434,7.591
			C239.582,308.265,243.345,308.926,244.488,309.127L244.488,309.127z"/>
	</g>
	<path fill="#2F2E41" d="M126.542,93.589c0.84-3.003-0.215-4.097,0.86-5.444c0,0,0.432-0.542,4.298-2.006l0,0
		c-1.14-6.618-0.286-7.738-0.286-7.738c0.984-1.289,2.958-1.602,4.299-1.432c2.84,0.356,3.341,2.922,5.159,2.866
		c2.51-0.08,5.52-5.104,4.585-9.458c-0.762-3.552-4.048-6.189-4.872-5.731c-0.817,0.454-3.757-1.547-4.873-1.146
		c-0.761,0.273-4.346-0.091-5.159,0.286c-0.888,0.412-3.429,2.975-3.672,2.653c-1.689-2.246-1.652-3.029-2.633-3.512
		c-1.737-0.858-3.623,0.727-6.877,2.292c-6.695,3.221-8.656,1.299-11.75,4.012c-1.562,1.37-2.399,3.988-4.012,9.171
		c-2.254,7.247-3.381,10.869-2.292,14.329c1.11,3.527,2.745,2.76,5.158,7.738c2.687,5.54,1.761,8.761,4.299,10.029
		c1.961,0.98,5.114,0.357,6.305-1.433c2.038-3.063-3.229-7.208-1.434-12.035c1.103-2.964,4.506-5.211,6.592-4.585
		c2.358,0.708,2.532,4.937,4.012,4.872C125.515,97.258,126.395,94.112,126.542,93.589L126.542,93.589z"/>
	<path fill="#E6E6E6" d="M110.207,114.222c4.413-4.947,22.385,0.173,24.072,8.024c0.694,3.229-1.866,4.592-1.146,8.311
		c1.055,5.438,7.028,5.067,11.462,10.604c6.295,7.858-0.189,15.541,6.878,28.657c1.51,2.802,2.783,5.165,5.445,7.451
		c6.107,5.246,11.791,3.447,14.901,8.311c2.325,3.637,1.37,8.12,1.147,9.171c-0.918,4.306-3.406,5.355-5.159,8.883
		c-2.917,5.87,0.387,10.18,0.573,17.195c0.235,8.776-4.429,20.94-13.755,24.932c-10.479,4.484-23.114-2.942-29.229-10.316
		c-3.65-4.4-4.709-8.459-6.305-13.469c-7.135-22.39-11.167-20.364-16.622-38.114c-6.237-20.29-7.463-44.061,0-51.582
		c0.989-0.997,3.712-3.302,5.445-7.451C110.247,119.242,108.232,116.437,110.207,114.222L110.207,114.222z"/>
	<g>
		<path id="uuid-35da8825-ceb1-46f8-a8e3-884fcc945dd4-129" fill="#A0616A" d="M175.404,229.389
			c3.421,4.346,3.951,9.635,1.185,11.812c-2.767,2.176-7.782,0.417-11.203-3.932c-1.391-1.719-2.35-3.744-2.798-5.909l-14.262-18.6
			l7.371-5.621l14.619,18.141C172.315,226.224,174.061,227.632,175.404,229.389L175.404,229.389z"/>
		<path fill="#E6E6E6" d="M123.172,133.076c0.635-0.142,6.188-1.292,10.554,2.085c5.014,3.88,4.772,10.883,4.687,13.339
			c-0.197,5.674-2.421,6.598-3.743,12.163c-2.475,10.412,2.237,20.086,4.841,25.432c0.902,1.85,3.796,7.512,9.559,13.609
			c11.209,11.858,21.21,18.098,21.21,18.098l-10.744,9.55c0,0-17.113-5.216-28.709-15.667
			c-11.896-10.72-30.187-48.647-33.979-57.886c-0.326-0.795,4.299,12.14,13.132-6.81
			C111.992,142.668,115.683,134.749,123.172,133.076L123.172,133.076z"/>
	</g>
</g>
<g>
	<path id="uuid-ba1531a6-e7ab-4297-b996-1d676f43fe3f-130" fill="#FFB6B6" d="M270.479,423.835
		c-6.83,1.046-11.825,5.418-11.158,9.765c0.667,4.346,6.743,7.018,13.574,5.971c2.734-0.383,5.337-1.412,7.592-3.005l28.878-4.8
		l-1.928-11.415l-28.813,4.076C275.995,423.581,273.201,423.378,270.479,423.835L270.479,423.835z"/>
	<polygon fill="#E6E6E6" points="394.916,388.254 383.719,412.014 327.429,430.964 280.72,433.455 279.549,422.236 330.172,411.65 
		382.118,387.104 	"/>
	<polygon fill="#FFB6B6" points="291.097,478.473 281.044,503.9 268.034,495.03 275.722,468.42 	"/>
	<polygon fill="#FFB6B6" points="249.111,469.011 222.501,494.439 233.145,505.675 260.346,484.386 	"/>
	<polygon fill="#FFB6B6" points="399.904,386.222 399.609,384.152 392.809,370.848 370.338,376.761 374.477,395.092 	"/>
	<path fill="#2F2E41" d="M390.444,474.925l0.691,8.882c0,0,2.856,37.243-20.206,40.2c-23.063,2.958-33.115,5.913-46.716-17.148
		l-21.29-37.847l-12.435,14.795l-16.54-13.021c0,0,11.827-46.125,21.287-47.898c1.184-0.222,2.366-0.333,3.531-0.356
		c7.832-0.163,15.217,3.668,19.903,9.947l26.832,35.944l9.757-4.436L390.444,474.925L390.444,474.925z"/>
	<path fill="#2F2E41" d="M262.713,502.719l5.322-10.054l15.376,10.644c0,0,3.549,13.01-1.774,14.784
		c-5.323,1.773-20.107-0.593-20.107-0.593s-27.201,5.914-27.792,0.593c-0.592-5.322,12.418-6.505,12.418-6.505L262.713,502.719
		L262.713,502.719z"/>
	<path fill="#2F2E41" d="M320.663,495.621l-41.098-25.896l-20.993,18.8l-14.192-16.558c0,0,26.019-38.438,33.707-40.213
		c7.688-1.773,20.106-2.957,20.106-2.957l37.846,34.89L320.663,495.621L320.663,495.621z"/>
	<path fill="#2F2E41" d="M221.908,492.073l13.601,14.784l-1.792,1.532c0,0-3.529,15.37-11.808,10.17
		c-8.278-5.198-8.871-6.381-8.871-6.381s-23.654,5.321-26.019-4.14c-2.365-9.462,4.14-7.688,4.14-7.688l5.905,3.547L221.908,492.073
		L221.908,492.073z"/>
	<circle fill="#FFB6B6" cx="377.433" cy="364.342" r="18.923"/>
	<path fill="#E6E6E6" d="M372.998,391.249l27.202-8.279c0,0,10.644,24.836,8.871,36.072c-1.775,11.236-17.937,64.765-17.937,64.765
		l-35.877-19.822c0,0-0.593-11.826-2.366-17.148c-1.774-5.322-7.391-21.585,5.027-35.187
		C370.338,398.048,372.998,391.249,372.998,391.249L372.998,391.249z"/>
	<g>
		<path id="uuid-375aaccb-22f9-42b6-a352-baabb12db8d2-131" fill="#FFB6B6" d="M313.128,515.421
			c-4.427,5.304-5.279,11.888-1.902,14.704c3.376,2.816,9.7,0.801,14.128-4.506c1.799-2.096,3.068-4.591,3.703-7.277l18.473-22.709
			l-8.998-7.283l-18.903,22.123C317.096,511.58,314.869,513.276,313.128,515.421L313.128,515.421z"/>
		<polygon fill="#E6E6E6" points="393.865,403.18 400.293,428.646 368.825,479.02 336.7,511.306 326.286,502.667 358.685,462.356 
			383.244,410.416 		"/>
	</g>
	<path fill="#2F2E41" d="M359.988,361.089c4.854-0.013,5.13,0.021,5.914,0c6.019-0.159,7.593-2.525,10.645-2.364
		c5.445,0.287-1.742,27.589-4.73,40.211c-2.932,12.379,6.975,23.472,7.687,24.245c10.057,10.936,27.72,12.936,30.751,8.278
		c2.453-3.77-6.242-9.5-4.142-17.74c2.056-8.054,11.541-7.196,14.194-14.784c2.776-7.944-6.557-11.952-12.419-31.342
		c-3.368-11.134-2.771-13.21-5.913-20.105c-8.397-18.435-49.564-10.585-44.942,6.505C357.926,357.3,355.547,361.101,359.988,361.089
		L359.988,361.089z"/>
</g>
<g>
	<path fill="#FFFFFF" d="M420.415,136.447h-198.88c-5.623,0-10.198-4.576-10.198-10.2V20.602
		c-0.001-5.624,4.574-10.199,10.198-10.199h198.881c5.623,0,10.198,4.576,10.198,10.199v105.645
		C430.615,131.872,426.039,136.447,420.415,136.447z"/>
	<path fill="#3F3D56" d="M420.415,136.447h-198.88c-5.623,0-10.198-4.576-10.198-10.2V20.602
		c-0.001-5.624,4.574-10.199,10.198-10.199h198.881c5.623,0,10.198,4.576,10.198,10.199v105.645
		C430.615,131.872,426.039,136.447,420.415,136.447z M221.535,12.105c-4.684,0-8.496,3.813-8.496,8.497v105.645
		c0,4.685,3.813,8.497,8.496,8.497h198.881c4.684,0,8.496-3.812,8.496-8.497V20.602c0-4.684-3.813-8.497-8.496-8.497H221.535z"/>
	<circle fill="#3F3D56" cx="405.066" cy="20.623" r="2.555"/>
	<circle fill="#3F3D56" cx="411.878" cy="20.623" r="2.555"/>
	<circle fill="#3F3D56" cx="418.691" cy="20.623" r="2.555"/>
	<path fill="#E6E6E6" d="M225.815,61.928c-0.705,0-1.278,0.573-1.278,1.277c0,0.344,0.133,0.661,0.373,0.896
		c0.244,0.249,0.562,0.382,0.905,0.382h191.174c0.705,0,1.277-0.572,1.277-1.277c0-0.343-0.132-0.661-0.374-0.896
		c-0.242-0.248-0.561-0.381-0.903-0.381L225.815,61.928L225.815,61.928z"/>
	<path fill="#FFEC00" d="M393.142,61.501v3.407H225.815c-0.469,0-0.895-0.187-1.202-0.501c-0.315-0.307-0.503-0.733-0.503-1.201
		c0-0.938,0.766-1.703,1.704-1.703L393.142,61.501L393.142,61.501z"/>
	<path fill="#E6E6E6" d="M414.859,55.114h-17.032c-1.879,0-3.408-1.529-3.408-3.407c0-1.879,1.529-3.407,3.408-3.407h17.032
		c1.879,0,3.407,1.528,3.407,3.407S416.738,55.114,414.859,55.114z"/>
	<path fill="#E6E6E6" d="M303.293,37.23h-76.203c-1.878,0-3.406-1.528-3.406-3.407c0-1.879,1.528-3.407,3.406-3.407h76.203
		c1.877,0,3.407,1.528,3.407,3.407C306.7,35.702,305.17,37.23,303.293,37.23z"/>
	<path fill="#E6E6E6" d="M225.815,100.252c-0.705,0-1.278,0.572-1.278,1.277c0,0.343,0.133,0.661,0.373,0.895
		c0.244,0.249,0.562,0.382,0.905,0.382h191.174c0.705,0,1.277-0.572,1.277-1.277c0-0.344-0.132-0.662-0.374-0.896
		c-0.242-0.249-0.561-0.381-0.903-0.381H225.815z"/>
	<path fill="#FFEC00" d="M327.565,99.826v3.407h-101.75c-0.469,0-0.895-0.188-1.202-0.503c-0.315-0.307-0.503-0.732-0.503-1.201
		c0-0.937,0.766-1.703,1.704-1.703H327.565z"/>
	<path fill="#E6E6E6" d="M414.859,93.438h-17.032c-1.879,0-3.408-1.527-3.408-3.407s1.529-3.407,3.408-3.407h17.032
		c1.879,0,3.407,1.527,3.407,3.407S416.738,93.438,414.859,93.438z"/>
</g>
</svg>
